<?xml version="1.0"?>
<svg width="146" height="24" xmlns="http://www.w3.org/2000/svg" xmlns:svg="http://www.w3.org/2000/svg">
 <g class="layer">
  <title>Layer 1</title>
  <g fill="none" fill-rule="evenodd" id="svg_1">
   <path d="m40.01,16.81l0,-8.26c0,-1.57 0.37,-2.82 1.1,-3.73c0.73,-0.91 1.65,-1.36 2.75,-1.36c2.16,0 3.24,1.58 3.24,4.73l0,8.62l3.78,0l0,-9.58c0,-2.42 -0.5,-4.22 -1.5,-5.42c-1,-1.2 -2.43,-1.79 -4.3,-1.79c-1.22,0 -2.34,0.23 -3.35,0.7a6.83,6.83 0 0 0 -2.56,2.04l-0.06,0c-0.98,-1.83 -2.62,-2.74 -4.93,-2.74c-0.97,0 -1.9,0.21 -2.8,0.65a6.98,6.98 0 0 0 -2.35,1.88l-0.05,0l0,-2.28l-3.78,0l0,16.52l3.78,0l0,-8.24c0,-1.57 0.37,-2.82 1.12,-3.73c0.74,-0.91 1.69,-1.36 2.85,-1.36c2.19,0 3.28,1.58 3.28,4.73l0,8.62l3.78,0zm21.11,0.25c2.24,0 3.99,-0.83 5.25,-2.48l0.05,0l0,2.21l3.61,0l0,-16.52l-3.78,0l0,1.98l-0.06,0c-1.26,-1.49 -2.96,-2.23 -5.11,-2.23a7.76,7.76 0 0 0 -5.68,2.41c-0.7,0.75 -1.26,1.66 -1.67,2.73a9.59,9.59 0 0 0 -0.61,3.44c0,1.26 0.21,2.42 0.61,3.48c0.41,1.06 0.97,1.95 1.67,2.68a7.35,7.35 0 0 0 2.54,1.69a8.32,8.32 0 0 0 3.18,0.61zm0.59,-3.44c-1.4,0 -2.54,-0.47 -3.42,-1.4c-0.88,-0.93 -1.32,-2.13 -1.32,-3.6c0,-1.56 0.45,-2.8 1.36,-3.75c0.91,-0.94 2.04,-1.41 3.4,-1.41c1.34,0 2.45,0.49 3.34,1.48c0.89,0.99 1.33,2.21 1.33,3.68c0,1.47 -0.45,2.67 -1.36,3.6c-0.91,0.93 -2.02,1.4 -3.33,1.4zm27.11,3.19l0,-9.75c0,-2.39 -0.53,-4.16 -1.61,-5.31c-1.07,-1.16 -2.55,-1.73 -4.45,-1.73a7.37,7.37 0 0 0 -3.05,0.64a6.96,6.96 0 0 0 -2.48,1.87l-0.05,0l0,-2.27l-3.78,0l0,16.53l3.78,0l0,-8.3c0,-1.59 0.39,-2.83 1.16,-3.71c0.78,-0.88 1.82,-1.32 3.12,-1.32c0.59,0 1.1,0.08 1.52,0.23c0.43,0.15 0.8,0.41 1.12,0.75c0.32,0.35 0.56,0.82 0.71,1.42c0.15,0.59 0.23,1.32 0.23,2.18l0,8.77l3.78,0zm10.22,0.25c2.25,0 4,-0.83 5.25,-2.48l0.05,0l0,2.21l3.62,0l0,-16.52l-3.78,0l0,1.98l-0.07,0c-1.25,-1.49 -2.96,-2.23 -5.1,-2.23a7.76,7.76 0 0 0 -5.68,2.41c-0.71,0.75 -1.27,1.66 -1.67,2.73a9.59,9.59 0 0 0 -0.61,3.44c0,1.26 0.2,2.42 0.61,3.48c0.4,1.06 0.96,1.95 1.67,2.68a7.35,7.35 0 0 0 2.53,1.69a8.32,8.32 0 0 0 3.18,0.61zm0.59,-3.44c-1.39,0 -2.53,-0.47 -3.41,-1.4c-0.89,-0.93 -1.33,-2.13 -1.33,-3.6c0,-1.56 0.46,-2.8 1.37,-3.75c0.9,-0.94 2.04,-1.41 3.39,-1.41c1.34,0 2.46,0.49 3.34,1.48c0.89,0.99 1.33,2.21 1.33,3.68c0,1.47 -0.45,2.67 -1.36,3.6c-0.91,0.93 -2.02,1.4 -3.33,1.4zm19.07,10.12c1.2,0 2.28,-0.14 3.22,-0.42c0.95,-0.28 1.75,-0.67 2.39,-1.18a6.38,6.38 0 0 0 1.6,-1.84a8.14,8.14 0 0 0 0.92,-2.38c0.19,-0.86 0.28,-1.81 0.28,-2.83l0,-14.82l-3.78,0l0,1.73l-0.07,0a7.06,7.06 0 0 0 -2.35,-1.49a7.62,7.62 0 0 0 -2.77,-0.51c-1.51,0 -2.86,0.36 -4.06,1.07c-1.2,0.72 -2.13,1.72 -2.8,2.99c-0.67,1.28 -1,2.71 -1,4.3c0,1.6 0.35,3.03 1.05,4.28c0.7,1.25 1.66,2.2 2.88,2.87c1.22,0.67 2.6,1 4.13,1c2.05,0 3.72,-0.67 5.01,-2.02l0.06,0l0,1.76c0,1.17 -0.43,2.14 -1.29,2.91c-0.86,0.77 -2.07,1.16 -3.63,1.16c-1.07,0 -2.01,-0.14 -2.82,-0.4c-0.81,-0.27 -1.74,-0.68 -2.8,-1.24l-0.89,3.34c0.93,0.55 1.97,0.98 3.12,1.27c1.16,0.3 2.36,0.45 3.6,0.45zm0.14,-10.72c-1.37,0 -2.49,-0.43 -3.38,-1.3c-0.89,-0.86 -1.33,-2.02 -1.33,-3.48c0,-1.4 0.43,-2.54 1.3,-3.43c0.87,-0.88 2.01,-1.32 3.41,-1.32c1.33,0 2.44,0.44 3.32,1.31c0.89,0.87 1.33,2 1.33,3.39c0,1.4 -0.43,2.56 -1.29,3.47c-0.87,0.91 -1.99,1.36 -3.36,1.36zm19.08,4.04c1.54,0 2.9,-0.28 4.07,-0.85c1.18,-0.56 2.14,-1.32 2.89,-2.28l-2.65,-2.27c-1.03,1.31 -2.4,1.96 -4.11,1.96c-1.21,0 -2.24,-0.34 -3.08,-1.01c-0.84,-0.68 -1.38,-1.6 -1.63,-2.77l12.03,0c0.06,-0.39 0.1,-0.9 0.1,-1.5c0,-1.6 -0.33,-3.03 -0.98,-4.29a7.2,7.2 0 0 0 -2.81,-2.96c-1.22,-0.71 -2.63,-1.07 -4.22,-1.07a8.19,8.19 0 0 0 -3.19,0.62c-0.99,0.41 -1.85,0.99 -2.56,1.73c-0.72,0.74 -1.28,1.63 -1.69,2.69c-0.4,1.06 -0.61,2.21 -0.61,3.46c0,1.69 0.37,3.19 1.11,4.49c0.74,1.31 1.75,2.31 3.02,3.01c1.28,0.69 2.72,1.04 4.31,1.04zm3.82,-10.28l-8.26,0c0.26,-1.06 0.78,-1.87 1.54,-2.45c0.76,-0.58 1.66,-0.87 2.7,-0.87c1.06,0 1.93,0.3 2.62,0.89c0.69,0.6 1.16,1.41 1.4,2.43z" fill="#ffffff" fill-rule="nonzero" id="svg_2"/>
   <g fill="#F3603C" id="svg_3">
    <path d="m2.79,10.29c1.53,0 2.78,1.27 2.78,2.85c0,1.58 -1.25,2.86 -2.78,2.86c-1.54,0 -2.79,-1.28 -2.79,-2.86c0,-1.57 1.25,-2.85 2.79,-2.85zm0,-10.29c1.53,0 2.78,1.28 2.78,2.86c0,1.58 -1.25,2.85 -2.78,2.85c-1.54,0 -2.79,-1.27 -2.79,-2.85c0,-1.58 1.25,-2.86 2.79,-2.86zm10.02,0c1.54,0 2.79,1.28 2.79,2.86c0,1.58 -1.25,2.85 -2.79,2.85c-1.53,0 -2.78,-1.27 -2.78,-2.85c0,-1.58 1.25,-2.86 2.78,-2.86z" id="svg_4"/>
    <ellipse cx="12.81" cy="13.26" id="svg_5" opacity="0.5" rx="2.79" ry="2.86"/>
   </g>
  </g>
 </g>
</svg>